<svg width="261" height="27" viewBox="0 0 261 27" fill="none" xmlns="http://www.w3.org/2000/svg">
<path d="M45.3627 20.016C46.5147 21.36 48.0747 22.032 50.0427 22.032C52.0107 22.032 53.5707 21.36 54.7227 20.016C55.8747 18.672 56.4507 16.848 56.4507 14.544V0.611999H60.6987V14.724C60.6987 18.348 59.7027 21.144 57.7107 23.112C55.7187 25.056 53.1627 26.028 50.0427 26.028C46.9227 26.028 44.3667 25.056 42.3747 23.112C40.3827 21.144 39.3867 18.348 39.3867 14.724V0.611999H43.6347V14.544C43.6347 16.848 44.2107 18.672 45.3627 20.016Z" fill="white"/>
<path d="M76.8476 4.5V25.776H72.5996V4.5H64.9675V0.611999H84.4796V4.5H76.8476Z" fill="white"/>
<path d="M106.998 6.552C105.294 4.776 103.194 3.888 100.698 3.888C98.2021 3.888 96.0901 4.776 94.3621 6.552C92.6581 8.328 91.8061 10.488 91.8061 13.032C91.8061 15.552 92.6581 17.7 94.3621 19.476C96.0901 21.252 98.2021 22.14 100.698 22.14C103.194 22.14 105.294 21.252 106.998 19.476C108.726 17.7 109.59 15.552 109.59 13.032C109.59 10.488 108.726 8.328 106.998 6.552ZM110.13 22.32C107.586 24.792 104.442 26.028 100.698 26.028C96.9541 26.028 93.8101 24.792 91.2661 22.32C88.7221 19.824 87.4501 16.728 87.4501 13.032C87.4501 9.312 88.7221 6.216 91.2661 3.744C93.8101 1.248 96.9541 0 100.698 0C104.442 0 107.586 1.248 110.13 3.744C112.674 6.216 113.946 9.312 113.946 13.032C113.946 16.728 112.674 19.824 110.13 22.32Z" fill="white"/>
<path d="M164.965 0.611999V4.608H151.537V11.268H163.597V15.048H151.537V21.78H165.397V25.776H147.289V0.611999H164.965Z" fill="white"/>
<path d="M170.844 25.776V0.611999H175.092V21.744H186.576V25.776H170.844Z" fill="white"/>
<path d="M199.874 0.611999C203.69 0.611999 206.474 1.344 208.226 2.808C209.978 4.272 210.854 6.528 210.854 9.576C210.854 12.624 209.954 14.856 208.154 16.272C206.378 17.688 203.642 18.396 199.946 18.396H195.482V25.776H191.234V0.611999H199.874ZM200.414 14.544C202.766 14.544 204.362 14.1 205.202 13.212C206.066 12.3 206.498 10.98 206.498 9.252C206.498 7.5 205.958 6.264 204.878 5.544C203.798 4.824 202.106 4.464 199.802 4.464H195.482V14.544H200.414Z" fill="white"/>
<path d="M233.52 0.611999V4.608H220.092V11.268H232.152V15.048H220.092V21.78H233.952V25.776H215.844V0.611999H233.52Z" fill="white"/>
<path d="M259.486 8.784C259.486 12.936 257.674 15.552 254.05 16.632L260.638 25.776H255.238L249.226 17.316H243.646V25.776H239.398V0.611999H248.758C252.598 0.611999 255.346 1.26 257.002 2.556C258.658 3.852 259.486 5.928 259.486 8.784ZM248.938 13.464C251.338 13.464 252.97 13.092 253.834 12.348C254.698 11.604 255.13 10.416 255.13 8.784C255.13 7.128 254.686 6 253.798 5.4C252.91 4.776 251.326 4.464 249.046 4.464H243.646V13.464H248.938Z" fill="white"/>
<path fill-rule="evenodd" clip-rule="evenodd" d="M14.036 25.776L16.556 20.052H26.5L25 16.128H18.284L22.856 5.76L27.428 16.128L29.156 20.052L31.676 25.776H36.212L25.124 0.611999H20.588L9.49998 25.776H14.036Z" fill="white"/>
<path fill-rule="evenodd" clip-rule="evenodd" d="M119.304 0.611999V25.776H123.552V15.48H133.5V11.52H123.552V0.611999H119.304ZM136.044 15.48V25.776H140.292V0.611999H136.044V11.52V15.48Z" fill="white"/>
<path fill-rule="evenodd" clip-rule="evenodd" d="M4.74999 25.776H0L11.5 0.611999H16.044L4.74999 25.776Z" fill="#3D5E71"/>
<path d="M9.49998 25.776L20.588 0.611999H16.044L4.74999 25.776H9.49998Z" fill="#679DBB"/>
</svg>
